<svg width="10" height="6" viewBox="0 0 10 6" fill="none" xmlns="http://www.w3.org/2000/svg">
<path d="M5.47305 3.93359C5.41108 3.99607 5.33734 4.04567 5.2561 4.07952C5.17486 4.11336 5.08773 4.13079 4.99972 4.13079C4.91171 4.13079 4.82457 4.11336 4.74333 4.07952C4.6621 4.04567 4.58836 3.99607 4.52639 3.93359L1.47305 0.873588C1.41107 0.811103 1.33734 0.761506 1.2561 0.72766C1.17486 0.693815 1.08772 0.67639 0.999715 0.67639C0.911707 0.67639 0.82457 0.693815 0.74333 0.72766C0.662091 0.761506 0.588357 0.811103 0.526381 0.873588C0.402214 0.998497 0.33252 1.16746 0.33252 1.34359C0.33252 1.51971 0.402214 1.68868 0.526381 1.81359L3.58638 4.87359C3.96139 5.24812 4.46972 5.4585 4.99972 5.4585C5.52972 5.4585 6.03805 5.24812 6.41305 4.87359L9.47306 1.81359C9.59622 1.68941 9.66566 1.52182 9.66639 1.34692C9.6669 1.25918 9.65008 1.17221 9.61691 1.09098C9.58373 1.00976 9.53484 0.935882 9.47306 0.873588C9.41108 0.811103 9.33735 0.761506 9.25611 0.72766C9.17487 0.693815 9.08773 0.67639 8.99972 0.67639C8.91172 0.67639 8.82458 0.693815 8.74334 0.72766C8.6621 0.761506 8.58837 0.811103 8.52639 0.873588L5.47305 3.93359Z" fill="#FD9222"/>
</svg>
