<svg width="22" height="22" viewBox="0 0 22 22" fill="none" xmlns="http://www.w3.org/2000/svg">
<path d="M15.5833 1.83325H6.41665C3.88534 1.83325 1.83331 3.88528 1.83331 6.41658V15.5833C1.83331 18.1146 3.88534 20.1666 6.41665 20.1666H15.5833C18.1146 20.1666 20.1666 18.1146 20.1666 15.5833V6.41658C20.1666 3.88528 18.1146 1.83325 15.5833 1.83325Z" stroke="white" stroke-width="1.5" stroke-linecap="round" stroke-linejoin="round"/>
<path d="M14.6667 10.4225C14.7798 11.1854 14.6495 11.9646 14.2943 12.6491C13.9391 13.3337 13.377 13.8888 12.6882 14.2356C11.9993 14.5823 11.2186 14.703 10.4571 14.5805C9.69569 14.4579 8.99228 14.0984 8.44693 13.5531C7.90159 13.0078 7.54208 12.3043 7.41956 11.5429C7.29703 10.7815 7.41772 10.0008 7.76446 9.31188C8.1112 8.62298 8.66633 8.06096 9.3509 7.70575C10.0355 7.35055 10.8146 7.22024 11.5775 7.33337C12.3557 7.44876 13.0761 7.81137 13.6324 8.36765C14.1887 8.92392 14.5513 9.64435 14.6667 10.4225Z" stroke="white" stroke-width="1.5" stroke-linecap="round" stroke-linejoin="round"/>
<path d="M14.6667 10.4225C14.7798 11.1854 14.6495 11.9646 14.2943 12.6491C13.9391 13.3337 13.377 13.8888 12.6882 14.2356C11.9993 14.5823 11.2186 14.703 10.4571 14.5805C9.69569 14.4579 8.99228 14.0984 8.44693 13.5531C7.90159 13.0078 7.54208 12.3043 7.41956 11.5429C7.29703 10.7815 7.41772 10.0008 7.76446 9.31188C8.1112 8.62298 8.66633 8.06096 9.3509 7.70575C10.0355 7.35055 10.8146 7.22024 11.5775 7.33337C12.3557 7.44876 13.0761 7.81137 13.6324 8.36765C14.1887 8.92392 14.5513 9.64435 14.6667 10.4225Z" stroke="white" stroke-width="1.5" stroke-linecap="round" stroke-linejoin="round"/>
<path d="M16.0417 5.95825H16.0517" stroke="white" stroke-width="1.5" stroke-linecap="round" stroke-linejoin="round"/>
<path d="M16.0417 5.95825H16.0517" stroke="white" stroke-width="1.5" stroke-linecap="round" stroke-linejoin="round"/>
</svg>
