<svg width="170" height="21" viewBox="0 0 170 21" fill="none" xmlns="http://www.w3.org/2000/svg">
<path d="M4.822 15.668C4.29 15.668 3.772 15.6167 3.268 15.514C2.77333 15.4207 2.32067 15.29 1.91 15.122C1.50867 14.954 1.168 14.772 0.888 14.576L1.812 12.826C2.12 13.0407 2.44667 13.2273 2.792 13.386C3.14667 13.5353 3.51533 13.652 3.898 13.736C4.28067 13.8107 4.66333 13.848 5.046 13.848C5.466 13.848 5.82533 13.8013 6.124 13.708C6.432 13.6147 6.66533 13.484 6.824 13.316C6.992 13.148 7.076 12.9427 7.076 12.7C7.076 12.476 6.98733 12.294 6.81 12.154C6.63267 12.014 6.39933 11.8973 6.11 11.804C5.83 11.7013 5.51733 11.6033 5.172 11.51C4.82667 11.4167 4.47667 11.3093 4.122 11.188C3.77667 11.0573 3.45933 10.8987 3.17 10.712C2.89 10.516 2.66133 10.2687 2.484 9.97C2.30667 9.67133 2.218 9.298 2.218 8.85C2.218 8.178 2.4 7.59467 2.764 7.1C3.13733 6.60533 3.66 6.22267 4.332 5.952C5.004 5.672 5.79267 5.532 6.698 5.532C7.36067 5.532 7.986 5.60667 8.574 5.756C9.162 5.896 9.666 6.10133 10.086 6.372L9.232 8.108C8.85867 7.856 8.44333 7.66933 7.986 7.548C7.52867 7.41733 7.05733 7.352 6.572 7.352C6.13333 7.352 5.75533 7.40333 5.438 7.506C5.13 7.60867 4.892 7.75333 4.724 7.94C4.56533 8.11733 4.486 8.32267 4.486 8.556C4.486 8.78933 4.57 8.98067 4.738 9.13C4.91533 9.27 5.14867 9.39133 5.438 9.494C5.72733 9.58733 6.04467 9.68067 6.39 9.774C6.73533 9.86733 7.08067 9.97467 7.426 10.096C7.77133 10.2173 8.08867 10.3713 8.378 10.558C8.66733 10.7447 8.90067 10.9827 9.078 11.272C9.25533 11.552 9.344 11.9067 9.344 12.336C9.344 13.008 9.15733 13.596 8.784 14.1C8.41067 14.5947 7.88333 14.982 7.202 15.262C6.53 15.5327 5.73667 15.668 4.822 15.668ZM9.91373 15.5L11.8737 5.7H14.1557L12.1957 15.5H9.91373ZM14.0875 15.5L16.0475 5.7H17.8955L20.6815 12.644L19.7015 12.63L25.1335 5.7H27.0795L25.1335 15.5H23.0055L24.3075 8.934H24.7415L20.4155 14.464H19.4075L17.0975 8.92L17.5175 8.962L16.2155 15.5H14.0875ZM27.0386 15.5L28.9986 5.7H32.9606C34.1832 5.7 35.1259 5.97067 35.7886 6.512C36.4606 7.044 36.7966 7.79067 36.7966 8.752C36.7966 9.57333 36.6052 10.292 36.2226 10.908C35.8399 11.5147 35.2892 11.9813 34.5706 12.308C33.8612 12.6347 33.0166 12.798 32.0366 12.798H28.8586L30.0626 11.762L29.3206 15.5H27.0386ZM30.0066 12.028L29.2086 10.95H32.1346C32.8812 10.95 33.4599 10.782 33.8706 10.446C34.2906 10.1007 34.5006 9.60133 34.5006 8.948C34.5006 8.472 34.3419 8.122 34.0246 7.898C33.7072 7.66467 33.2592 7.548 32.6806 7.548H29.9226L31.1266 6.442L30.0066 12.028ZM36.7358 15.5L38.6958 5.7H40.9778L39.3818 13.652H44.2958L43.9178 15.5H36.7358ZM46.1893 15.5L46.9873 11.468L47.2393 12.896L44.3553 5.7H46.6233L48.8213 11.202L47.4493 11.216L51.8873 5.7H54.2253L48.4853 12.91L49.2553 11.468L48.4573 15.5H46.1893ZM61.785 15.668C61.029 15.668 60.3244 15.5467 59.671 15.304C59.027 15.052 58.467 14.6973 57.991 14.24C57.515 13.7827 57.1417 13.246 56.871 12.63C56.6097 12.014 56.479 11.3373 56.479 10.6C56.479 9.86267 56.6097 9.186 56.871 8.57C57.1417 7.954 57.515 7.41733 57.991 6.96C58.4764 6.50267 59.041 6.15267 59.685 5.91C60.329 5.658 61.0337 5.532 61.799 5.532C62.6484 5.532 63.4137 5.68133 64.095 5.98C64.7857 6.26933 65.3644 6.69867 65.831 7.268L64.375 8.612C64.039 8.22933 63.6657 7.94467 63.255 7.758C62.8444 7.562 62.3964 7.464 61.911 7.464C61.4537 7.464 61.0337 7.53867 60.651 7.688C60.2684 7.83733 59.937 8.052 59.657 8.332C59.377 8.612 59.1577 8.94333 58.999 9.326C58.8497 9.70867 58.775 10.1333 58.775 10.6C58.775 11.0667 58.8497 11.4913 58.999 11.874C59.1577 12.2567 59.377 12.588 59.657 12.868C59.937 13.148 60.2684 13.3627 60.651 13.512C61.0337 13.6613 61.4537 13.736 61.911 13.736C62.3964 13.736 62.8444 13.6427 63.255 13.456C63.6657 13.26 64.039 12.966 64.375 12.574L65.831 13.918C65.3644 14.4873 64.7857 14.9213 64.095 15.22C63.4137 15.5187 62.6437 15.668 61.785 15.668ZM73.6626 5.7H75.9306V15.5H73.6626V5.7ZM69.2106 15.5H66.9426V5.7H69.2106V15.5ZM73.8306 11.482H69.0426V9.564H73.8306V11.482ZM82.5893 15.668C81.8146 15.668 81.0959 15.542 80.4333 15.29C79.7799 15.038 79.2106 14.6833 78.7253 14.226C78.2493 13.7687 77.8759 13.232 77.6053 12.616C77.3439 12 77.2133 11.328 77.2133 10.6C77.2133 9.872 77.3439 9.2 77.6053 8.584C77.8759 7.968 78.2539 7.43133 78.7393 6.974C79.2246 6.51667 79.7939 6.162 80.4473 5.91C81.1006 5.658 81.8099 5.532 82.5753 5.532C83.3499 5.532 84.0593 5.658 84.7033 5.91C85.3566 6.162 85.9213 6.51667 86.3973 6.974C86.8826 7.43133 87.2606 7.968 87.5313 8.584C87.8019 9.19067 87.9373 9.86267 87.9373 10.6C87.9373 11.328 87.8019 12.0047 87.5313 12.63C87.2606 13.246 86.8826 13.7827 86.3973 14.24C85.9213 14.688 85.3566 15.038 84.7033 15.29C84.0593 15.542 83.3546 15.668 82.5893 15.668ZM82.5753 13.736C83.0139 13.736 83.4153 13.6613 83.7793 13.512C84.1526 13.3627 84.4793 13.148 84.7593 12.868C85.0393 12.588 85.2539 12.2567 85.4033 11.874C85.5619 11.4913 85.6413 11.0667 85.6413 10.6C85.6413 10.1333 85.5619 9.70867 85.4033 9.326C85.2539 8.94333 85.0393 8.612 84.7593 8.332C84.4886 8.052 84.1666 7.83733 83.7933 7.688C83.4199 7.53867 83.0139 7.464 82.5753 7.464C82.1366 7.464 81.7306 7.53867 81.3573 7.688C80.9933 7.83733 80.6713 8.052 80.3913 8.332C80.1113 8.612 79.8919 8.94333 79.7333 9.326C79.5839 9.70867 79.5093 10.1333 79.5093 10.6C79.5093 11.0573 79.5839 11.482 79.7333 11.874C79.8919 12.2567 80.1066 12.588 80.3773 12.868C80.6573 13.148 80.9839 13.3627 81.3573 13.512C81.7306 13.6613 82.1366 13.736 82.5753 13.736ZM93.9118 15.668C93.1558 15.668 92.4511 15.5467 91.7978 15.304C91.1538 15.052 90.5938 14.6973 90.1178 14.24C89.6418 13.7827 89.2684 13.246 88.9978 12.63C88.7364 12.014 88.6058 11.3373 88.6058 10.6C88.6058 9.86267 88.7364 9.186 88.9978 8.57C89.2684 7.954 89.6418 7.41733 90.1178 6.96C90.6031 6.50267 91.1678 6.15267 91.8118 5.91C92.4558 5.658 93.1604 5.532 93.9258 5.532C94.7751 5.532 95.5404 5.68133 96.2218 5.98C96.9124 6.26933 97.4911 6.69867 97.9578 7.268L96.5018 8.612C96.1658 8.22933 95.7924 7.94467 95.3818 7.758C94.9711 7.562 94.5231 7.464 94.0378 7.464C93.5804 7.464 93.1604 7.53867 92.7778 7.688C92.3951 7.83733 92.0638 8.052 91.7838 8.332C91.5038 8.612 91.2844 8.94333 91.1258 9.326C90.9764 9.70867 90.9018 10.1333 90.9018 10.6C90.9018 11.0667 90.9764 11.4913 91.1258 11.874C91.2844 12.2567 91.5038 12.588 91.7838 12.868C92.0638 13.148 92.3951 13.3627 92.7778 13.512C93.1604 13.6613 93.5804 13.736 94.0378 13.736C94.5231 13.736 94.9711 13.6427 95.3818 13.456C95.7924 13.26 96.1658 12.966 96.5018 12.574L97.9578 13.918C97.4911 14.4873 96.9124 14.9213 96.2218 15.22C95.5404 15.5187 94.7704 15.668 93.9118 15.668ZM103.624 15.668C102.85 15.668 102.131 15.542 101.468 15.29C100.815 15.038 100.246 14.6833 99.7603 14.226C99.2843 13.7687 98.9109 13.232 98.6403 12.616C98.3789 12 98.2483 11.328 98.2483 10.6C98.2483 9.872 98.3789 9.2 98.6403 8.584C98.9109 7.968 99.2889 7.43133 99.7743 6.974C100.26 6.51667 100.829 6.162 101.482 5.91C102.136 5.658 102.845 5.532 103.61 5.532C104.385 5.532 105.094 5.658 105.738 5.91C106.392 6.162 106.956 6.51667 107.432 6.974C107.918 7.43133 108.296 7.968 108.566 8.584C108.837 9.19067 108.972 9.86267 108.972 10.6C108.972 11.328 108.837 12.0047 108.566 12.63C108.296 13.246 107.918 13.7827 107.432 14.24C106.956 14.688 106.392 15.038 105.738 15.29C105.094 15.542 104.39 15.668 103.624 15.668ZM103.61 13.736C104.049 13.736 104.45 13.6613 104.814 13.512C105.188 13.3627 105.514 13.148 105.794 12.868C106.074 12.588 106.289 12.2567 106.438 11.874C106.597 11.4913 106.676 11.0667 106.676 10.6C106.676 10.1333 106.597 9.70867 106.438 9.326C106.289 8.94333 106.074 8.612 105.794 8.332C105.524 8.052 105.202 7.83733 104.828 7.688C104.455 7.53867 104.049 7.464 103.61 7.464C103.172 7.464 102.766 7.53867 102.392 7.688C102.028 7.83733 101.706 8.052 101.426 8.332C101.146 8.612 100.927 8.94333 100.768 9.326C100.619 9.70867 100.544 10.1333 100.544 10.6C100.544 11.0573 100.619 11.482 100.768 11.874C100.927 12.2567 101.142 12.588 101.412 12.868C101.692 13.148 102.019 13.3627 102.392 13.512C102.766 13.6613 103.172 13.736 103.61 13.736ZM110.257 15.5V5.7H112.525V13.652H117.439V15.5H110.257ZM117.053 15.5L121.421 5.7H123.661L128.043 15.5H125.663L122.079 6.848H122.975L119.377 15.5H117.053ZM119.237 13.4L119.839 11.678H124.879L125.495 13.4H119.237ZM130.177 15.5V7.548H127.041V5.7H135.581V7.548H132.445V15.5H130.177ZM138.468 9.648H143.186V11.412H138.468V9.648ZM138.636 13.68H143.97V15.5H136.382V5.7H143.788V7.52H138.636V13.68Z" fill="#111111"/>
<path d="M151.588 13.1747L158.66 1.74L159.08 1.29762L164.485 4.90119L164.522 7.07579L165.841 9.22801L160.014 18.4658L151.588 13.1747Z" fill="#FCF1E0"/>
<path d="M163.198 15.671L153.889 9.85388M156.456 5.64288L165.765 11.46M155.976 16.9734L163.678 4.34042M166.835 9.70537C164.84 8.45885 164.056 7.48468 165.34 5.37918L159.023 1.43188L151.321 14.0649L160.631 19.882L166.835 9.70537Z" stroke="#FD9222" stroke-width="1.8" stroke-linecap="round" stroke-linejoin="round"/>
</svg>
